<svg xmlns="http://www.w3.org/2000/svg" viewBox="0 0 512 512" width="512" height="512">
  <!-- Modern Chest with Code Snippet Design -->
  
  <!-- Background (optional, transparent by default) -->
  <rect width="512" height="512" fill="none"/>
  
  <!-- Chest base - sleeker design with rounded corners -->
  <rect x="96" y="176" width="320" height="240" rx="24" fill="#5B4B8A" stroke="#413772" stroke-width="6" stroke-linejoin="round"/>
  
  <!-- Chest lid with smoother curve -->
  <path d="M88 176 C88 176, 104 138, 256 138 C408 138, 424 176, 424 176" fill="#6A5ACD" stroke="#413772" stroke-width="6" stroke-linejoin="round"/>
  
  <!-- Chest top panel -->
  <rect x="96" y="138" width="320" height="38" rx="12" fill="#6A5ACD" stroke="#413772" stroke-width="6" stroke-linejoin="round"/>
  
  <!-- Decorative band -->
  <rect x="96" y="260" width="320" height="12" fill="#9F91E8" stroke="#413772" stroke-width="2"/>
  
  <!-- Lock design - more modern -->
  <rect x="236" y="208" width="40" height="60" rx="8" fill="#9F91E8" stroke="#413772" stroke-width="3"/>
  <circle cx="256" cy="238" r="10" fill="#413772"/>
  
  <!-- Code snippet elements - brackets -->
  <path d="M160 220 L140 256 L160 292" stroke="#FFD700" stroke-width="8" stroke-linecap="round" stroke-linejoin="round" fill="none"/>
  <path d="M352 220 L372 256 L352 292" stroke="#FFD700" stroke-width="8" stroke-linecap="round" stroke-linejoin="round" fill="none"/>
  
  <!-- Code lines (snippet representation) -->
  <line x1="180" y1="230" x2="220" y2="230" stroke="#FFD700" stroke-width="4" stroke-linecap="round"/>
  <line x1="180" y1="256" x2="240" y2="256" stroke="#FFD700" stroke-width="4" stroke-linecap="round"/>
  <line x1="180" y1="282" x2="200" y2="282" stroke="#FFD700" stroke-width="4" stroke-linecap="round"/>
  
  <line x1="292" y1="230" x2="332" y2="230" stroke="#FFD700" stroke-width="4" stroke-linecap="round"/>
  <line x1="272" y1="256" x2="332" y2="256" stroke="#FFD700" stroke-width="4" stroke-linecap="round"/>
  <line x1="312" y1="282" x2="332" y2="282" stroke="#FFD700" stroke-width="4" stroke-linecap="round"/>
  
  <!-- Subtle highlights -->
  <path d="M116 176 L396 176" stroke="#FFFFFF" stroke-width="2" stroke-linecap="round" opacity="0.3"/>
  <path d="M116 380 L396 380" stroke="#FFFFFF" stroke-width="2" stroke-linecap="round" opacity="0.2"/>
</svg>