<?xml version="1.0" encoding="UTF-8"?>
<svg version="1.1" xmlns="http://www.w3.org/2000/svg" width="605" height="484">
<path d="M0 0 C199.65 0 399.3 0 605 0 C605 159.72 605 319.44 605 484 C405.35 484 205.7 484 0 484 C0 324.28 0 164.56 0 0 Z " fill="#F3F2F3" transform="translate(0,0)"/>
<path d="M0 0 C1.56433787 1.45636169 3.1267997 2.9147408 4.6875 4.375 C6.07582031 5.61056641 6.07582031 5.61056641 7.4921875 6.87109375 C12.98234694 11.75867471 18.03852619 16.68662147 22.6875 22.375 C23.10580078 22.87032227 23.52410156 23.36564453 23.95507812 23.87597656 C52.69406847 57.91109517 70.88241315 100.10742169 75.6875 144.375 C75.78248779 145.18155029 75.87747559 145.98810059 75.9753418 146.8190918 C76.89625724 155.46751104 76.88911505 164.12603188 76.875 172.8125 C76.87309662 174.0139415 76.87309662 174.0139415 76.87115479 175.23965454 C76.74371594 217.43296967 65.76204174 258.70879934 42.6875 294.375 C42.24792969 295.05643066 41.80835938 295.73786133 41.35546875 296.43994141 C35.12109032 306.00486134 28.29942582 314.87163546 20.6875 323.375 C20.21248047 323.90641602 19.73746094 324.43783203 19.24804688 324.98535156 C16.10268923 328.48842485 12.9109859 331.94371076 9.6875 335.375 C8.76710938 336.35919922 8.76710938 336.35919922 7.828125 337.36328125 C-28.29207218 374.77348547 -85.96153951 400.31582763 -137.9666748 401.76113892 C-142.99940284 401.84195485 -148.02932778 401.84378349 -153.0625 401.8125 C-154.64673264 401.80743942 -154.64673264 401.80743942 -156.26296997 401.80227661 C-171.63991223 401.73113488 -186.35143375 401.22368997 -201.3125 397.375 C-202.32135254 397.12830566 -203.33020508 396.88161133 -204.36962891 396.62744141 C-247.46024869 385.95794458 -286.17483294 364.04767852 -317.3125 332.375 C-315.63136251 327.23932999 -312.60603579 323.091465 -309.5625 318.6875 C-308.99192871 317.85750488 -308.42135742 317.02750977 -307.83349609 316.17236328 C-302.18116033 308.03761394 -296.13704501 300.23163115 -289.9765625 292.47827148 C-288.19256884 290.22341447 -286.42682472 287.95508048 -284.6640625 285.68359375 C-277.71794056 276.74159249 -270.4435471 268.19542575 -262.73291016 259.90869141 C-261.2960519 258.35724012 -259.87095329 256.79578345 -258.44921875 255.23046875 C-253.82788541 250.14573029 -249.14966597 245.15657873 -244.24560547 240.34082031 C-242.5237871 238.58986281 -240.93683491 236.79857051 -239.35546875 234.921875 C-234.16440557 228.94780229 -228.48984232 223.44595696 -222.875 217.875 C-221.7504167 216.75544368 -220.62606595 215.63565371 -219.50195312 214.515625 C-216.77480656 211.79938466 -214.04454093 209.08631708 -211.3125 206.375 C-205.68685468 210.94987132 -200.97741301 215.94341055 -196.22753906 221.40966797 C-185.22794935 233.89920214 -173.99541715 246.1562527 -162.5625 258.25 C-162.05555084 258.78680027 -161.54860168 259.32360055 -161.02629042 259.8766675 C-129.88222741 294.68541367 -129.88222741 294.68541367 -87.59500122 309.72949219 C-83.06737879 309.83139082 -78.62508452 309.54457649 -74.125 309.0625 C-73.40125687 308.98500267 -72.67751373 308.90750534 -71.93183899 308.82765961 C-63.18257286 307.81333418 -54.71871237 306.04042653 -46.3125 303.375 C-46.80878906 302.8903125 -47.30507813 302.405625 -47.81640625 301.90625 C-48.49574219 301.2359375 -49.17507813 300.565625 -49.875 299.875 C-50.53628906 299.2253125 -51.19757813 298.575625 -51.87890625 297.90625 C-53.79389678 295.91441394 -55.59128935 293.90081371 -57.38612366 291.80456543 C-62.1869314 286.28284663 -67.39222444 281.16341075 -72.57202148 276.00195312 C-73.69640746 274.87784974 -74.82057226 273.75352508 -75.9445343 272.6289978 C-78.97484678 269.59840016 -82.00821737 266.57088071 -85.0421741 263.54393196 C-88.22035299 260.37203356 -91.39567218 257.19727492 -94.57130432 254.02282715 C-100.57561297 248.02161803 -106.58246462 242.02296108 -112.59024912 236.02523184 C-119.43386293 229.1928221 -126.27461409 222.35754925 -133.11513412 215.52204227 C-147.17775461 201.46985494 -161.2439407 187.42124145 -175.3125 173.375 C-174.04128367 170.5929755 -172.73341336 168.54680344 -170.57041836 166.38961601 C-170.00970967 165.82554192 -169.44900098 165.26146784 -168.87130111 164.68030059 C-168.25525719 164.07076447 -167.63921327 163.46122835 -167.00450134 162.83322144 C-166.02294385 161.85015902 -166.02294385 161.85015902 -165.02155691 160.84723675 C-162.82369736 158.64842321 -160.61876334 156.45684331 -158.41381836 154.26513672 C-156.83837486 152.69189398 -155.26337845 151.11820341 -153.688797 149.5440979 C-150.29552307 146.1537595 -146.89911366 142.76660468 -143.50025749 139.38186264 C-138.13060249 134.03443839 -132.76801217 128.6799674 -127.40638733 123.32449341 C-119.8930067 115.82120467 -112.37650009 108.32106366 -104.85717773 100.82373047 C-104.38007268 100.34801873 -103.90296763 99.872307 -103.41140486 99.38217975 C-102.93369148 98.90586191 -102.45597811 98.42954407 -101.96378857 97.93879235 C-95.18730043 91.1820818 -88.41178766 84.42439519 -81.63745117 77.66552734 C-81.16062273 77.18978975 -80.68379429 76.71405216 -80.1925165 76.22389828 C-72.25016087 68.29954801 -64.30982661 60.37317425 -56.37052065 52.44576848 C-51.03453668 47.11821372 -45.69575695 41.79348075 -40.35474575 36.4709661 C-37.0394098 33.16624155 -33.7260777 29.85951343 -30.41325188 26.5522728 C-28.87133824 25.01384195 -27.32855307 23.47628406 -25.78485489 21.93964386 C-23.68545897 19.8496392 -21.58911339 17.75662257 -19.49351501 15.66281128 C-18.87524037 15.04881371 -18.25696572 14.43481615 -17.61995548 13.8022126 C-14.59588387 10.8702381 -14.59588387 10.8702381 -12.3125 7.375 C-77.19359665 35.03812995 -136.80086043 67.43318374 -188.72900391 115.90478516 C-190.83399148 117.85918466 -192.95936148 119.79068547 -195.08447266 121.72314453 C-200.30368803 126.4725478 -205.38818887 131.32033946 -210.3125 136.375 C-214.16277206 134.79535813 -216.55875535 132.34355605 -219.453125 129.39453125 C-219.93900085 128.90345383 -220.42487671 128.4123764 -220.92547607 127.90641785 C-222.47600303 126.33814352 -224.01969156 124.76336518 -225.5625 123.1875 C-227.09180931 121.63030129 -228.62264947 120.0746917 -230.15667725 118.5221405 C-231.55998537 117.10118497 -232.95836889 115.67537088 -234.35644531 114.24926758 C-236.48312216 112.13213105 -238.69684365 110.16158991 -240.97576904 108.20974731 C-245.38649419 104.3636811 -249.52971507 100.29167137 -253.65625 96.14477539 C-254.44745743 95.35371399 -255.23866486 94.56265259 -256.05384827 93.74761963 C-258.64244579 91.15833101 -261.22749312 88.56552915 -263.8125 85.97265625 C-265.61688712 84.16640209 -267.42149661 82.36037005 -269.22631836 80.55455017 C-273.4742808 76.30317273 -277.72001088 72.04957853 -281.96464252 67.79487652 C-286.8019167 62.94637828 -291.64207159 58.10076009 -296.48245621 53.2553674 C-306.42898563 43.29841923 -316.37193868 33.3379062 -326.3125 23.375 C-320.39638075 11.13884975 -307.75058714 1.61633154 -297.3125 -6.625 C-296.37148438 -7.39457031 -295.43046875 -8.16414063 -294.4609375 -8.95703125 C-218.09246538 -70.03207549 -104.13749873 -72.83731909 0 0 Z " fill="#0F2A91" transform="translate(455.3125,72.625)"/>
<path d="M0 0 C6.09568635 5.0449056 11.6692048 10.53375294 17.24975586 16.13623047 C18.26533876 17.15209592 19.28114286 18.16774027 20.29714966 19.18318176 C23.03649399 21.9222408 25.77275796 24.66435802 28.50845408 27.40706015 C31.37472927 30.27961365 34.24386263 33.14930956 37.11268616 36.01931763 C42.53664823 41.44637986 47.95805752 46.87598473 53.37854058 52.30652153 C59.55314129 58.49232433 65.73060339 64.67526624 71.90830028 70.85797668 C84.60870636 83.56881735 97.3055381 96.28322294 110 109 C108.34699265 112.51084156 106.46260282 114.75749433 103.67578125 117.484375 C102.37930664 118.76441406 102.37930664 118.76441406 101.05664062 120.0703125 C100.15107422 120.95460938 99.24550781 121.83890625 98.3125 122.75 C92.9001818 128.05603995 87.59496277 133.35111474 82.66479492 139.11035156 C79.18657248 143.05835592 75.36251702 146.6758854 71.60546875 150.35546875 C67.82632122 154.08767035 64.26307411 157.92905156 60.79492188 161.95117188 C56.98241262 166.30299147 52.94694874 170.45234702 48.9609375 174.64453125 C44.52143943 179.33257265 40.22430375 184.11778235 36 189 C34.96557749 190.17902957 33.93044013 191.35743241 32.89453125 192.53515625 C23.14866014 203.66816209 13.76289718 215.07272329 5 227 C-13.5021539 206.30340459 -20.58237882 170.51962774 -25 144 C-25.19335938 142.92363281 -25.38671875 141.84726562 -25.5859375 140.73828125 C-32.90339405 92.34642236 -22.26634054 43.02446464 0 0 Z " fill="#0F2A91" transform="translate(100,134)"/>
<path d="M0 0 C6.06383664 5.02063933 11.60435507 10.4693279 17.15795898 16.04443359 C18.16368978 17.05044696 19.16964181 18.0562392 20.17579651 19.06182861 C22.88828222 21.77402907 25.59768773 24.48928733 28.30652499 27.20513105 C31.14477271 30.04965758 33.98587908 32.89132605 36.82667542 35.73330688 C42.19751364 41.10724512 47.56579905 46.48372591 52.93315798 51.86113894 C59.04730011 57.98648362 65.16430404 64.108967 71.28154266 70.23121905 C83.85753481 82.81764547 96.42995255 95.40763676 109 108 C107.65272739 110.79570164 106.40293767 112.83967803 104.1796875 115.015625 C103.37724609 115.80839844 103.37724609 115.80839844 102.55859375 116.6171875 C102.00300781 117.15601563 101.44742188 117.69484375 100.875 118.25 C100.31167969 118.80429688 99.74835938 119.35859375 99.16796875 119.9296875 C97.78313972 121.29104485 96.39216796 122.64614859 95 124 C95 121 95 121 97.40625 118.30078125 C98.4299968 117.29697757 99.4616054 116.30114351 100.5 115.3125 C101.28697266 114.54583008 101.28697266 114.54583008 102.08984375 113.76367188 C103.38660904 112.50227292 104.69246117 111.25022788 106 110 C103.95032704 106.31165016 101.71761781 103.47302812 98.72895813 100.50190735 C97.85817627 99.63126648 96.98739441 98.76062561 96.09022522 97.86360168 C95.12835037 96.91199294 94.1663876 95.96047307 93.2043457 95.0090332 C92.18869311 93.99722146 91.17349678 92.98495156 90.15872192 91.97225952 C87.97787418 89.79772076 85.79396149 87.62632502 83.60762978 85.45730019 C80.15319616 82.02993815 76.70642813 78.59493633 73.26078796 75.15873718 C65.95059349 67.87072196 58.63196574 60.59120209 51.3125 53.3125 C43.40026138 45.44428102 35.48947887 37.57463077 27.58838338 29.6952197 C24.15987081 26.27669501 20.726535 22.86311089 17.28947985 19.45317614 C15.1580317 17.33659623 13.03068997 15.21592628 10.90446854 13.09409714 C9.91450324 12.10789061 8.92280351 11.12342177 7.92929268 10.14078712 C6.57833549 8.80416182 5.23401116 7.46084221 3.89009094 6.11714172 C3.13442998 5.36592198 2.37876902 4.61470224 1.60020924 3.84071827 C0 2 0 2 0 0 Z " fill="#0D1984" transform="translate(101,135)"/>
<path d="M0 0 C3.45928744 1.72964372 5.14412493 2.89537573 7.75 5.5625 C8.67039062 6.49255859 8.67039062 6.49255859 9.609375 7.44140625 C11 9 11 9 11 10 C-10.78 10 -32.56 10 -55 10 C-55 9.34 -55 8.68 -55 8 C-34.87 7.67 -14.74 7.34 6 7 C4.02 4.69 2.04 2.38 0 0 Z " fill="#FCFBFC" transform="translate(399,367)"/>
<path d="M0 0 C5.39190397 4.4978935 10.39391684 9.26126542 15.33984375 14.2421875 C16.10680069 15.01055939 16.87375763 15.77893127 17.66395569 16.57058716 C20.0908474 19.00303509 22.51422127 21.43895322 24.9375 23.875 C26.59156486 25.53408552 28.24585945 27.19294202 29.90039062 28.8515625 C33.93625433 32.89839709 37.96924277 36.94807953 42 41 C41.34 41.66 40.68 42.32 40 43 C39.33742188 42.33613281 38.67484375 41.67226563 37.9921875 40.98828125 C35.75424264 38.74954894 33.50714862 36.52025255 31.2578125 34.29296875 C29.88015605 32.9245318 28.50255306 31.55604103 27.125 30.1875 C26.44308594 29.51396484 25.76117188 28.84042969 25.05859375 28.14648438 C21.06860935 24.17549991 17.27196054 20.1024775 13.59423828 15.84106445 C11.41666551 13.32635139 9.17892587 10.90023145 6.875 8.5 C6.06804687 7.6440625 5.26109375 6.788125 4.4296875 5.90625 C2.14252421 3.76137101 2.14252421 3.76137101 -0.8046875 3.71875 C-1.89136719 3.85796875 -1.89136719 3.85796875 -3 4 C-2.01 2.68 -1.02 1.36 0 0 Z " fill="#202F90" transform="translate(244,279)"/>
<path d="M0 0 C21.45 0 42.9 0 65 0 C65 0.33 65 0.66 65 1 C44.54 1 24.08 1 3 1 C3 1.66 3 2.32 3 3 C2.01 2.67 1.02 2.34 0 2 C0 1.34 0 0.68 0 0 Z " fill="#EAECEE" transform="translate(341,374)"/>
<path d="M0 0 C7.8702797 3.5948506 13.56280419 10.46744678 19 17 C19.51046875 17.60714844 20.0209375 18.21429688 20.546875 18.83984375 C21.70412181 20.2213884 22.85311753 21.60983943 24 23 C21 23 21 23 18.73168945 21.10400391 C17.86761475 20.23694824 17.00354004 19.36989258 16.11328125 18.4765625 C15.65140915 18.0151889 15.18953705 17.55381531 14.71366882 17.07846069 C13.73934115 16.10179295 12.76870424 15.12143141 11.80151367 14.13769531 C10.31648219 12.62904553 8.81855547 11.1341798 7.31835938 9.640625 C0 2.2790462 0 2.2790462 0 0 Z " fill="#243492" transform="translate(194,159)"/>
<path d="M0 0 C0.92142456 14.4314726 0.95899674 28.57078758 0 43 C-0.33 43 -0.66 43 -1 43 C-1.02505615 42.33170166 -1.0501123 41.66340332 -1.07592773 40.97485352 C-1.58039821 27.64013167 -2.13907654 14.31683732 -3 1 C-1 0 -1 0 0 0 Z " fill="#ECEFF3" transform="translate(533,210)"/>
<path d="M0 0 C1.85953078 3.25808543 2.53823806 6.24462525 3.125 9.9375 C3.29257812 10.95714844 3.46015625 11.97679687 3.6328125 13.02734375 C3.96614565 15.72592382 4.06998996 18.28538935 4 21 C3.01 21 2.02 21 1 21 C0.67 15.39 0.34 9.78 0 4 C-0.66 4 -1.32 4 -2 4 C-1 1 -1 1 0 0 Z " fill="#1C2D90" transform="translate(526,192)"/>
<path d="M0 0 C7.15801225 5.82628904 13.52591766 12.4382985 20 19 C17 19 17 19 15.36181641 17.62304688 C14.78093262 16.99462891 14.20004883 16.36621094 13.6015625 15.71875 C12.95703125 15.04199219 12.3125 14.36523438 11.6484375 13.66796875 C10.3031107 12.22654717 8.96193092 10.78124348 7.625 9.33203125 C6.97789062 8.65527344 6.33078125 7.97851562 5.6640625 7.28125 C5.08092285 6.65283203 4.4977832 6.02441406 3.89697266 5.37695312 C1.47414791 3.61830041 -0.07348928 3.73572683 -3 4 C-2.01 2.68 -1.02 1.36 0 0 Z " fill="#1D278A" transform="translate(244,279)"/>
<path d="M0 0 C4.91935902 4.11619836 9.52647956 8.40410362 14 13 C13.01 13.33 12.02 13.66 11 14 C9.0625 12.70703125 9.0625 12.70703125 7 10.8125 C6.319375 10.20019531 5.63875 9.58789062 4.9375 8.95703125 C0 3.96975806 0 3.96975806 0 0 Z " fill="#CED4E6" transform="translate(217,183)"/>
<path d="M0 0 C-1.49097658 3.7952131 -3.75700849 5.61042731 -7 8 C-7.33 7.34 -7.66 6.68 -8 6 C-8.66 6 -9.32 6 -10 6 C-10 5.01 -10 4.02 -10 3 C-8.70990357 2.49596232 -7.41786211 1.99690074 -6.125 1.5 C-5.04605469 1.08234375 -5.04605469 1.08234375 -3.9453125 0.65625 C-2 0 -2 0 0 0 Z " fill="#E1E4EF" transform="translate(443,80)"/>
<path d="M0 0 C0.09945415 6.11090483 0.0712828 11.97403427 -1 18 C-1.33 18 -1.66 18 -2 18 C-2.33 12.39 -2.66 6.78 -3 1 C-1 0 -1 0 0 0 Z " fill="#D8DCEA" transform="translate(533,210)"/>
<path d="M0 0 C0.33 0.66 0.66 1.32 1 2 C-3.75 6.875 -3.75 6.875 -6 8 C-4.55746343 4.63408134 -2.66735273 2.48952921 0 0 Z " fill="#E0E4EE" transform="translate(193,261)"/>
<path d="M0 0 C5.27749285 0.53851968 9.25645564 1.77343836 14 4 C14 4.66 14 5.32 14 6 C12.22888156 5.52188823 10.45811517 5.0424722 8.6875 4.5625 C7.70136719 4.29566406 6.71523437 4.02882813 5.69921875 3.75390625 C3.78482474 3.21920575 1.88566385 2.62855462 0 2 C0 1.34 0 0.68 0 0 Z " fill="#212C8F" transform="translate(223,459)"/>
<path d="M0 0 C4.2742558 1.5830577 6.26531794 4.50568404 9 8 C8.34 8.66 7.68 9.32 7 10 C5.82739389 8.71372289 4.6620717 7.42080217 3.5 6.125 C2.8503125 5.40570313 2.200625 4.68640625 1.53125 3.9453125 C0 2 0 2 0 0 Z " fill="#202F91" transform="translate(462,80)"/>
<path d="M0 0 C3.21043882 1.38188453 5.04936365 2.92421903 7.25 5.625 C8.03117188 6.57246094 8.03117188 6.57246094 8.828125 7.5390625 C9.40820312 8.26222656 9.40820312 8.26222656 10 9 C9.01 9 8.02 9 7 9 C7 8.34 7 7.68 7 7 C6.360625 6.731875 5.72125 6.46375 5.0625 6.1875 C3 5 3 5 2 2 C1.34 2 0.68 2 0 2 C0 1.34 0 0.68 0 0 Z " fill="#D5DAE9" transform="translate(232,199)"/>
<path d="M0 0 C0.33 0 0.66 0 1 0 C1.66 3.63 2.32 7.26 3 11 C2.01 11.33 1.02 11.66 0 12 C-0.19573608 10.56359829 -0.38127816 9.12580496 -0.5625 7.6875 C-0.66691406 6.88699219 -0.77132812 6.08648437 -0.87890625 5.26171875 C-1 3 -1 3 0 0 Z " fill="#E1E5EE" transform="translate(77,289)"/>
<path d="M0 0 C-1.45271122 3.75283733 -1.45271122 3.75283733 -3.9375 4.875 C-6 5 -6 5 -9 3 C-2.25 0 -2.25 0 0 0 Z " fill="#E7E9F0" transform="translate(415,92)"/>
<path d="M0 0 C1.98 0 3.96 0 6 0 C6.33 0.99 6.66 1.98 7 3 C4.36 3 1.72 3 -1 3 C-0.67 2.01 -0.34 1.02 0 0 Z " fill="#E4E6EE" transform="translate(277,14)"/>
<path d="M0 0 C3.36720387 1.39332574 4.9859524 2.9789286 7 6 C3.75728494 5.4409112 2.06942576 4.5867822 0 2 C0 1.34 0 0.68 0 0 Z " fill="#D2D8E8" transform="translate(394,361)"/>
<path d="M0 0 C0.33 0 0.66 0 1 0 C1.33 2.97 1.66 5.94 2 9 C1.01 9.33 0.02 9.66 -1 10 C-1.125 3.375 -1.125 3.375 0 0 Z " fill="#E7E8F0" transform="translate(75,278)"/>
<path d="M0 0 C2.31 0 4.62 0 7 0 C7 0.66 7 1.32 7 2 C7.66 2 8.32 2 9 2 C9 2.66 9 3.32 9 4 C6.03 3.01 3.06 2.02 0 1 C0 0.67 0 0.34 0 0 Z " fill="#E8ECF3" transform="translate(389,32)"/>
</svg>
